<svg xmlns="http://www.w3.org/2000/svg" width="28" height="28" fill="none" viewBox="0 0 28 28">
    <g clip-path="url(#clip0)">
        <path fill="#363C4B" d="M8.099 13.375L18.65 2.852c.346-.345.906-.344 1.25.002.346.345.345.905-.001 1.25l-9.924 9.897 9.924 9.897c.346.345.347.905.002 1.25-.173.174-.4.26-.626.26-.226 0-.452-.085-.625-.258L8.1 14.627c-.167-.165-.26-.39-.26-.626 0-.235.093-.46.26-.626z"/>
    </g>
    <defs>
        <clipPath id="clip0">
            <path fill="#fff" d="M0 0H22.815V22.815H0z" transform="matrix(-1 0 0 1 25.4062 2.59375)"/>
        </clipPath>
    </defs>
</svg>
