<svg xmlns="http://www.w3.org/2000/svg" width="34" height="34" fill="none" viewBox="0 0 34 34">
    <g fill="#363C4B" clip-path="url(#clip0)">
        <path d="M26.795 7.206C24.179 4.589 20.7 3.148 17 3.148S9.822 4.59 7.206 7.206C4.589 9.822 3.148 13.3 3.148 17s1.441 7.179 4.058 9.795C9.822 29.411 13.3 30.852 17 30.852s7.179-1.44 9.795-4.057c2.616-2.616 4.057-6.095 4.057-9.795s-1.44-7.178-4.057-9.794zM17 29.748C9.97 29.748 4.252 24.03 4.252 17 4.252 9.97 9.971 4.252 17 4.252c7.03 0 12.748 5.719 12.748 12.748 0 7.03-5.718 12.748-12.748 12.748z"/>
        <path d="M19.452 16.89l3.844-3.844c.691-.691.691-1.816 0-2.507-.335-.335-.78-.52-1.254-.52s-.919.185-1.254.52l-3.844 3.844-3.844-3.844c-.335-.335-.78-.52-1.254-.52-.473 0-.918.185-1.253.52-.692.691-.692 1.816 0 2.507l3.844 3.844-3.844 3.845c-.692.69-.692 1.816 0 2.507.335.335.78.52 1.253.52.474 0 .92-.185 1.254-.52l3.844-3.844 3.844 3.844c.335.335.78.52 1.254.52s.919-.185 1.254-.52c.691-.691.691-1.816 0-2.508l-3.844-3.844zm3.063 5.571c-.126.127-.294.196-.473.196s-.347-.07-.473-.196l-4.235-4.234c-.103-.104-.243-.162-.39-.162-.146 0-.287.058-.39.162l-4.234 4.234c-.127.127-.295.196-.474.196-.178 0-.347-.07-.473-.196-.26-.26-.26-.685 0-.946l4.235-4.234c.103-.104.161-.244.161-.39 0-.147-.058-.287-.161-.39l-4.235-4.235c-.26-.261-.26-.686 0-.947.127-.126.295-.196.473-.196.18 0 .347.07.474.196l4.234 4.235c.216.215.565.215.78 0l4.235-4.235c.126-.126.294-.196.473-.196s.347.07.473.196c.261.261.261.686 0 .947L18.281 16.5c-.104.104-.162.244-.162.39 0 .147.058.287.162.39l4.234 4.235c.261.26.261.685 0 .946z"/>
        <path d="M12.47 6.857c-.138-.272-.47-.38-.742-.242-1.887.96-3.479 2.416-4.604 4.213C5.967 12.676 5.355 14.81 5.355 17c0 .305.248.552.552.552.305 0 .552-.247.552-.552 0-3.99 2.21-7.591 5.769-9.401.272-.139.38-.47.242-.742zM14.739 6.69c.037 0 .075-.004.112-.011.703-.146 1.427-.22 2.151-.22.305 0 .552-.247.552-.552 0-.304-.247-.552-.552-.552-.8 0-1.598.082-2.374.243-.299.062-.49.354-.429.652.054.261.284.44.54.44z"/>
    </g>
    <defs>
        <clipPath id="clip0">
            <path fill="#fff" d="M0 0H27.704V27.704H0z" transform="translate(3.14844 3.14844)"/>
        </clipPath>
    </defs>
</svg>
