<svg width="177" height="110" viewBox="0 0 177 110" fill="none" xmlns="http://www.w3.org/2000/svg">
<path d="M58.7406 13.6882H50.3004V50.3848H48.3008L42.3395 45.1125L43.9721 43.2103V31.2427C41.7947 32.3324 39.7932 32.8753 37.9659 32.8753C36.8425 32.8753 35.8932 32.7368 35.12 32.4559L31.2706 29.4004C30.8812 31.5086 30.0892 33.3172 28.8965 34.83C27.702 36.339 26.4195 37.322 25.0471 37.7807L38.0707 49.2765L36.3332 51.2236L18.6664 35.6163C17.4026 34.5978 16.3223 33.4482 15.4236 32.1638C14.5287 30.8813 14.0831 29.801 14.0831 28.9211C14.0831 28.0074 14.4426 27.3147 15.1615 26.8391C15.8805 26.3654 16.9084 26.1276 18.247 26.1276C19.8647 26.1276 21.7781 26.4459 23.9912 27.0787C24.2009 25.9554 24.3057 24.7777 24.3057 23.5439C24.3057 21.7521 24.1035 19.9604 23.6991 18.1667C23.2984 16.3749 22.7648 14.8303 22.0964 13.531H8.91561L4.90894 10.2582V8.25862H54.9961L58.7406 11.6811V13.6882ZM27.6833 13.6882C29.9694 17.5526 31.235 21.6117 31.4803 25.8655C33.551 26.4646 35.3259 26.7642 36.805 26.7642C37.8573 26.7642 38.9563 26.5171 40.1002 26.0228C41.2423 25.5285 42.5342 24.7553 43.9721 23.7012L44.0245 13.6882H27.6833Z" fill="black"/>
<path d="M71.0718 13.5834C73.6368 17.8671 74.9212 22.3138 74.9212 26.9215C74.9212 28.7488 74.6029 30.4264 73.9701 31.9542C73.3354 33.4819 72.5266 34.7476 71.5436 35.7511C70.5588 36.7547 69.5403 37.4324 68.4881 37.7807L81.5116 49.2765L79.7741 51.2236L62.1073 35.6163C60.8436 34.5978 59.7633 33.4482 58.8646 32.1638C57.9696 30.8813 57.524 29.801 57.524 28.9211C57.524 28.0074 57.8835 27.3147 58.6024 26.8391C59.3214 26.3654 60.3493 26.1276 61.688 26.1276C63.3056 26.1276 65.2191 26.4459 67.4321 27.0787C67.6418 25.9554 67.7466 24.7777 67.7466 23.5439C67.7466 21.7521 67.5444 19.9604 67.14 18.1667C66.7394 16.3749 66.2058 14.8303 65.5374 13.531H52.3565L48.3499 10.2582V8.25862H78.1865L82.1931 11.5239L82.2455 13.5834H71.0718Z" fill="black"/>
<path d="M118.944 13.3662V50.0628H116.937L110.983 44.7905L112.615 42.8957V30.0819C109.03 32.718 105.233 34.8281 101.225 36.4102L97.5399 33.1374V31.1378L99.1201 30.5013C98.8748 28.5354 98.3899 27.105 97.6672 26.21C96.9482 25.3113 95.9185 24.862 94.5817 24.862C92.8236 24.862 91.4175 25.4798 90.3653 26.7118C89.3112 27.94 88.7851 29.3629 88.7851 30.9806C88.7851 32.3136 89.0472 33.4932 89.5715 34.5154C90.0995 35.5339 91.1217 36.7097 92.6345 38.0428L97.113 41.997L95.3755 43.9517L82.352 32.4559C82.0711 31.473 81.9326 30.3122 81.9326 28.9735C81.9326 27.4663 82.3445 26.0715 83.1683 24.7871C83.9958 23.5046 85.1398 22.4935 86.5983 21.754C88.0549 21.0163 89.6632 20.6456 91.4213 20.6456C93.7766 20.6456 96.1769 21.3327 98.6183 22.7051C101.06 24.0737 102.932 25.8112 104.235 27.9175C107.22 26.1613 110.013 24.1411 112.615 21.8588V13.531H77.4466L73.762 10.2582V8.25862H123.684L127.376 11.5239V13.3662H118.944Z" fill="black"/>
<path d="M94.5802 69.0739V105.763H92.5731L86.6193 100.491L88.2519 98.5959V69.0739H77.2879V85.6248C77.2879 86.7482 76.9247 87.9165 76.202 89.1297C75.483 90.3429 74.6143 91.3652 73.5957 92.1927C72.5772 93.0166 71.628 93.4285 70.7499 93.4285C69.6265 93.4285 68.3084 92.9023 66.7956 91.8482C65.2828 90.796 63.9816 89.5304 62.8938 88.0513C61.8041 86.574 61.2612 85.2728 61.2612 84.1494C61.2612 83.4455 61.7068 82.8501 62.6017 82.3596C63.5004 81.8653 64.7586 81.6181 66.3762 81.6181C67.6382 81.6181 69.1659 81.8316 70.9596 82.2547V69.0739H55.7192L51.9822 65.8011V63.8015H99.3283L103.013 67.0668V69.0739H94.5802Z" fill="black"/>
<path d="M111.815 69.0739V105.763H109.816L103.854 100.491L105.487 98.596V69.0739H101.907L98.2151 65.8011V63.8016H105.435C103.257 60.3921 101.203 57.9058 99.2711 56.3424C97.3389 54.7753 95.4573 53.9908 93.6243 53.9908C92.7462 53.9908 92.0965 54.2286 91.6772 54.7023C91.2578 55.1779 91.0481 55.8182 91.0481 56.627C91.0481 57.9301 91.5236 59.471 92.471 61.2478C93.4202 63.0208 94.6653 64.6609 96.2081 66.1681H93.0477C90.2018 64.0974 88.0786 62.0416 86.6744 60.0046C85.2665 57.9638 84.5625 56.0803 84.5625 54.3578C84.5625 52.6709 85.1878 51.3172 86.4348 50.2987C87.678 49.2802 89.3387 48.7709 91.415 48.7709C94.5754 48.7709 97.5018 49.9224 100.192 52.2234C102.883 54.5263 105.721 58.3851 108.707 63.8016H116.616L120.308 67.0668L120.256 69.0739H111.815Z" fill="black"/>
<path d="M146.774 69.0739V105.763H144.767L138.813 100.491L140.446 98.5959V86.8905H131.429C129.602 86.8905 128.284 87.3304 127.475 88.2085C126.666 89.0885 126.262 90.3879 126.262 92.1104C126.262 93.4846 126.516 94.7147 127.025 95.8025C127.535 96.8922 128.579 98.1222 130.163 99.4946L135.593 104.288L133.855 106.242L119.828 93.8478C119.548 92.9005 119.409 91.8108 119.409 90.5826C119.409 87.5926 120.225 85.3514 121.858 83.8574C123.494 82.3652 125.895 81.6181 129.055 81.6181H140.446V69.0739H116.301L112.399 65.8011V63.8015H151.515L155.207 67.0668V69.0739H146.774Z" fill="black"/>
<path d="M164.06 69.0739V105.763H162.061L156.099 100.491L157.739 98.5959V69.0739H154.152L150.46 65.8011V63.8015H168.808L172.5 67.0668V69.0739H164.06Z" fill="black"/>
</svg>
