<svg width="40" height="41" viewBox="0 0 40 41" fill="none" xmlns="http://www.w3.org/2000/svg">
<rect y="0.134277" width="40" height="40" rx="20" fill="white" fill-opacity="0.65"/>
<path d="M13 18.1343C13 19.9908 13.7375 21.7713 15.0503 23.084C16.363 24.3968 18.1435 25.1343 20 25.1343M20 25.1343C21.8565 25.1343 23.637 24.3968 24.9497 23.084C26.2625 21.7713 27 19.9908 27 18.1343M20 25.1343V29.1343M16 29.1343H24M17 13.1343C17 12.3386 17.3161 11.5756 17.8787 11.013C18.4413 10.4503 19.2044 10.1343 20 10.1343C20.7956 10.1343 21.5587 10.4503 22.1213 11.013C22.6839 11.5756 23 12.3386 23 13.1343V18.1343C23 18.9299 22.6839 19.693 22.1213 20.2556C21.5587 20.8182 20.7956 21.1343 20 21.1343C19.2044 21.1343 18.4413 20.8182 17.8787 20.2556C17.3161 19.693 17 18.9299 17 18.1343V13.1343Z" stroke="#F06225" stroke-width="2" stroke-linecap="round" stroke-linejoin="round"/>
</svg>
