<svg width="120" height="24" viewBox="0 0 120 24" fill="none" xmlns="http://www.w3.org/2000/svg">
  <rect x="0" y="10" width="3" height="4" rx="1.5" fill="#F1A624"/>
  <rect x="6" y="10" width="3" height="4" rx="1.5" fill="#F1A624"/>
  <rect x="12" y="10" width="3" height="4" rx="1.5" fill="#F1A624"/>
  <rect x="18" y="10" width="3" height="4" rx="1.5" fill="#F1A624"/>
  <rect x="24" y="8" width="3" height="8" rx="1.5" fill="#F1A624"/>
  <rect x="30" y="5" width="3" height="14" rx="1.5" fill="#F1A624"/>
  <rect x="36" y="2" width="3" height="20" rx="1.5" fill="#F1A624"/>
  <rect x="42" y="6" width="3" height="12" rx="1.5" fill="#F1A624"/>
  <rect x="48" y="0" width="3" height="24" rx="1.5" fill="#F1A624"/>
  <rect x="54" y="4" width="3" height="16" rx="1.5" fill="#F1A624"/>
  <rect x="60" y="0" width="3" height="24" rx="1.5" fill="#F1A624"/>
  <rect x="66" y="6" width="3" height="12" rx="1.5" fill="#F1A624"/>
  <rect x="72" y="2" width="3" height="20" rx="1.5" fill="#F1A624"/>
  <rect x="78" y="8" width="3" height="8" rx="1.5" fill="#F1A624"/>
  <rect x="84" y="10" width="3" height="4" rx="1.5" fill="#F1A624"/>
  <rect x="90" y="10" width="3" height="4" rx="1.5" fill="#F1A624"/>
  <rect x="96" y="10" width="3" height="4" rx="1.5" fill="#F1A624"/>
  <rect x="102" y="10" width="3" height="4" rx="1.5" fill="#F1A624"/>
  <rect x="108" y="10" width="3" height="4" rx="1.5" fill="#F1A624"/>
  <rect x="114" y="10" width="3" height="4" rx="1.5" fill="#F1A624"/>
</svg>
