<?xml version="1.0" encoding="UTF-8"?>
<svg version="1.1" xmlns="http://www.w3.org/2000/svg" width="512" height="512">
<path d="M0 0 C4.45651419 3.86964812 7.58761326 8.41168549 8.2746582 14.38989258 C8.30394886 17.19823677 8.32818145 20.0039528 8.3125 22.8125 C8.30686035 23.873479 8.3012207 24.93445801 8.29541016 26.02758789 C7.65277374 69.13831133 -6.38567731 113.54880228 -31 149 C-31.51788086 149.74942871 -32.03576172 150.49885742 -32.56933594 151.27099609 C-40.08099016 162.03419242 -48.13949575 171.95907682 -57.34472656 181.31396484 C-58.93125016 182.92997251 -60.49475495 184.56539761 -62.0546875 186.20703125 C-69.1384854 193.57955821 -76.80436877 199.90360857 -85 206 C-85.56444824 206.42522949 -86.12889648 206.85045898 -86.71044922 207.28857422 C-117.39026408 230.31835733 -153.23013347 244.75532458 -191 251 C-191.72316406 251.12842285 -192.44632813 251.2568457 -193.19140625 251.38916016 C-251.71630562 261.46750867 -314.82694998 244.25620753 -362.89697266 210.50537109 C-374.82389036 201.9679466 -385.6468885 192.38448784 -396 182 C-396.00364563 182.64178192 -396.00729126 183.28356384 -396.01104736 183.9447937 C-396.05305787 190.66179825 -396.12253261 197.37813128 -396.20751953 204.09472656 C-396.23563788 206.59693668 -396.25689755 209.09923411 -396.27099609 211.6015625 C-396.29255159 215.21138925 -396.33926921 218.8201762 -396.390625 222.4296875 C-396.39246796 224.09123367 -396.39246796 224.09123367 -396.39434814 225.78634644 C-396.53644755 233.42756441 -397.4395063 241.04569694 -402.74957275 246.94308472 C-408.60671038 252.34560849 -414.1533503 253.46658034 -421.9921875 253.3125 C-427.96752727 252.69168548 -431.57593901 250.39241519 -435.8125 246.25 C-440.78788452 238.85800013 -441.44232423 232.47019228 -441.40405273 223.78564453 C-441.41091599 222.6886322 -441.41777924 221.59161987 -441.42485046 220.46136475 C-441.44308214 216.85171393 -441.43928568 213.24249928 -441.43359375 209.6328125 C-441.43815751 207.11229309 -441.44346366 204.59177492 -441.44947815 202.07125854 C-441.45840232 196.79404768 -441.45622963 191.51694904 -441.44604492 186.23974609 C-441.43457281 180.16161312 -441.44863149 174.08392187 -441.4754414 168.0058471 C-441.50036688 162.13252632 -441.50275973 156.25937594 -441.49632454 150.38601303 C-441.49617161 147.89903911 -441.50219219 145.41205657 -441.51461601 142.92511368 C-441.52956991 139.44079433 -441.5188151 135.95743481 -441.50170898 132.47314453 C-441.51137695 131.45568146 -441.52104492 130.43821838 -441.53100586 129.3899231 C-441.45581422 122.0390842 -440.32970786 114.70525697 -435.25000668 109.05262947 C-430.71623093 104.88122444 -426.21151619 102.75980186 -419.98628235 102.72584534 C-419.00099045 102.71587021 -418.01569855 102.70589508 -417.00054932 102.69561768 C-415.39599884 102.69462067 -415.39599884 102.69462067 -413.7590332 102.69360352 C-412.62344467 102.68528 -411.48785614 102.67695648 -410.31785583 102.66838074 C-406.56212944 102.64427816 -402.8065768 102.6355074 -399.05078125 102.62890625 C-396.43629403 102.61993892 -393.82180733 102.61081705 -391.20732117 102.60154724 C-385.7239009 102.58419194 -380.24052478 102.57732365 -374.75708008 102.57446289 C-368.43868451 102.5708334 -362.12077641 102.54097714 -355.80252963 102.49905831 C-349.70549989 102.46003917 -343.60870527 102.44886747 -337.51155663 102.44773674 C-334.92687529 102.44353942 -332.34219335 102.43112495 -329.75759315 102.41021919 C-326.13394894 102.3832466 -322.51163411 102.38814977 -318.88793945 102.40063477 C-317.82836029 102.38580048 -316.76878113 102.37096619 -315.67709351 102.35568237 C-308.51707056 102.42563287 -302.950041 103.89641893 -297 108 C-291.14260246 114.13999869 -290.5307313 120.23184225 -290.58984375 128.40625 C-291.2819129 134.47009394 -294.05711206 138.47349189 -298.62890625 142.3984375 C-303.03530752 145.51273614 -306.75664251 146.13041886 -312.03198242 146.20532227 C-313.27304245 146.22526749 -314.51410248 146.24521271 -315.79277039 146.26576233 C-317.1470019 146.28274527 -318.50123473 146.29962413 -319.85546875 146.31640625 C-321.24124259 146.33698228 -322.62701025 146.35797892 -324.01277161 146.37937927 C-327.65740953 146.43453301 -331.30210346 146.48397174 -334.94683838 146.53222656 C-338.6670835 146.58249056 -342.38724743 146.63815104 -346.10742188 146.69335938 C-353.40487913 146.80085899 -360.70240397 146.90232207 -368 147 C-365.98316914 149.05095018 -363.96172862 151.0969966 -361.9375 153.140625 C-361.37611328 153.71248535 -360.81472656 154.2843457 -360.23632812 154.87353516 C-354.28537988 160.86699018 -347.79196182 165.99960331 -341 171 C-339.96359375 171.76957031 -338.9271875 172.53914062 -337.859375 173.33203125 C-310.82081503 192.72778219 -279.12402229 204.70854951 -246 208 C-245.21415527 208.07976074 -244.42831055 208.15952148 -243.61865234 208.24169922 C-193.74134602 212.90208135 -143.78179292 196.61594978 -105.30078125 164.984375 C-67.08691043 133.036165 -41.54195429 86.92121375 -37 37 C-36.71206232 32.84592381 -36.48687114 28.69061034 -36.37744141 24.52783203 C-36.06982646 14.71687867 -34.44939398 7.25594207 -27.125 0.25 C-18.39383555 -6.0364384 -9.03709696 -5.16837318 0 0 Z " fill="#000000" transform="translate(483,238)"/>
<path d="M0 0 C3.55528782 3.30380421 7.01111442 6.68823035 10.4375 10.125 C10.44114563 9.48321808 10.44479126 8.84143616 10.44854736 8.1802063 C10.49055787 1.46320175 10.56003261 -5.25313128 10.64501953 -11.96972656 C10.67313788 -14.47193668 10.69439755 -16.97423411 10.70849609 -19.4765625 C10.73005159 -23.08638925 10.77676921 -26.6951762 10.828125 -30.3046875 C10.82935364 -31.41238495 10.83058228 -32.5200824 10.83184814 -33.66134644 C10.97394755 -41.30256441 11.8770063 -48.92069694 17.18707275 -54.81808472 C23.04421038 -60.22060849 28.5908503 -61.34158034 36.4296875 -61.1875 C42.40502727 -60.56668548 46.01343901 -58.26741519 50.25 -54.125 C55.22538452 -46.73300013 55.87982423 -40.34519228 55.84155273 -31.66064453 C55.85184761 -30.01512604 55.85184761 -30.01512604 55.86235046 -28.33636475 C55.88058214 -24.72671393 55.87678568 -21.11749928 55.87109375 -17.5078125 C55.87565751 -14.98729309 55.88096366 -12.46677492 55.88697815 -9.94625854 C55.89590232 -4.66904768 55.89372963 0.60805096 55.88354492 5.88525391 C55.87207281 11.96338688 55.88613149 18.04107813 55.9129414 24.1191529 C55.93786688 29.99247368 55.94025973 35.86562406 55.93382454 41.73898697 C55.93367161 44.22596089 55.93969219 46.71294343 55.95211601 49.19988632 C55.96706991 52.68420567 55.9563151 56.16756519 55.93920898 59.65185547 C55.94887695 60.66931854 55.95854492 61.68678162 55.96850586 62.7350769 C55.89331422 70.0859158 54.76720786 77.41974303 49.68750668 83.07237053 C45.15373093 87.24377556 40.64901619 89.36519814 34.42378235 89.39915466 C32.9458445 89.41411736 32.9458445 89.41411736 31.43804932 89.42938232 C30.368349 89.430047 29.29864868 89.43071167 28.1965332 89.43139648 C27.06094467 89.43972 25.92535614 89.44804352 24.75535583 89.45661926 C20.99962944 89.48072184 17.2440768 89.4894926 13.48828125 89.49609375 C10.87379403 89.50506108 8.25930733 89.51418295 5.64482117 89.52345276 C0.1614009 89.54080806 -5.32197522 89.54767635 -10.80541992 89.55053711 C-17.12381549 89.5541666 -23.44172359 89.58402286 -29.75997037 89.62594169 C-35.85700011 89.66496083 -41.95379473 89.67613253 -48.05094337 89.67726326 C-50.63562471 89.68146058 -53.22030665 89.69387505 -55.80490685 89.71478081 C-59.42855106 89.7417534 -63.05086589 89.73685023 -66.67456055 89.72436523 C-68.26392929 89.74661667 -68.26392929 89.74661667 -69.88540649 89.76931763 C-77.04542944 89.69936713 -82.612459 88.22858107 -88.5625 84.125 C-94.46567578 77.9370144 -94.96955223 71.87444439 -94.91015625 63.65234375 C-94.28972027 57.35735852 -91.51477506 53.93442567 -87 49.75 C-82.56300871 46.79200581 -79.73276246 45.87104315 -74.32519531 45.80615234 C-72.43368744 45.77634781 -72.43368744 45.77634781 -70.50396729 45.74594116 C-69.13285497 45.7340657 -67.7617408 45.72240279 -66.390625 45.7109375 C-64.98385487 45.69222131 -63.57709591 45.67264755 -62.17034912 45.6522522 C-58.47477817 45.60097239 -54.77917083 45.56132466 -51.08343506 45.52410889 C-47.30943839 45.48404307 -43.53559251 45.43296252 -39.76171875 45.3828125 C-32.3620827 45.28610244 -24.96237357 45.20168213 -17.5625 45.125 C-19.74615193 42.90632866 -21.93692188 40.69481205 -24.12890625 38.484375 C-24.73851196 37.86481934 -25.34811768 37.24526367 -25.97619629 36.60693359 C-32.05482273 30.49012735 -38.58109516 25.17288595 -45.5625 20.125 C-46.43745117 19.49150635 -46.43745117 19.49150635 -47.33007812 18.84521484 C-87.47548792 -9.8316517 -138.19842034 -22.24323451 -187.01489258 -14.67773438 C-239.07053793 -5.945988 -284.43723203 21.71520292 -315.12109375 64.6796875 C-336.21585553 94.90104555 -348.22309803 130.74451947 -349.18457031 167.59570312 C-349.4941886 177.40755035 -351.1118749 184.86788034 -358.4375 191.875 C-363.77888458 195.7207969 -369.01463557 197.03892454 -375.5625 196.125 C-382.61448292 194.30196417 -387.69725753 191.40601901 -391.5625 185.125 C-393.9958018 179.78583397 -393.90729827 175.09712019 -393.875 169.3125 C-393.86936035 168.251521 -393.8637207 167.19054199 -393.85791016 166.09741211 C-393.14057255 117.9754227 -375.75097499 70.23052438 -346.5625 32.125 C-345.93988281 31.30902344 -345.31726563 30.49304688 -344.67578125 29.65234375 C-339.33085324 22.81126956 -333.53726326 16.41381636 -327.5625 10.125 C-327.05557617 9.58939453 -326.54865234 9.05378906 -326.02636719 8.50195312 C-318.11935312 0.20526089 -309.74553471 -7.02971536 -300.5625 -13.875 C-299.14130859 -14.95394531 -299.14130859 -14.95394531 -297.69140625 -16.0546875 C-278.48939615 -30.37955425 -257.14453118 -41.05207185 -234.5625 -48.875 C-233.52996094 -49.24165771 -233.52996094 -49.24165771 -232.4765625 -49.61572266 C-220.15135352 -53.95615142 -207.40098525 -56.55338514 -194.5625 -58.875 C-193.8190332 -59.01067383 -193.07556641 -59.14634766 -192.30957031 -59.28613281 C-123.97795364 -71.01050397 -50.53690271 -46.28488648 0 0 Z " fill="#000000" transform="translate(414.5625,81.875)"/>
</svg>
