<?xml version="1.0" encoding="UTF-8"?>
<svg version="1.1" xmlns="http://www.w3.org/2000/svg" width="24" height="24">
<path d="M0 0 C4.30056739 0.4649262 7.57070829 2.14838316 11.3125 4.25 C12.91544922 5.12398438 12.91544922 5.12398438 14.55078125 6.015625 C17 8 17 8 17.65234375 10.50390625 C16.74820777 13.96344451 15.22366112 14.77524683 12.25 16.6875 C11.36828125 17.26886719 10.4865625 17.85023437 9.578125 18.44921875 C8.30195313 19.21685547 8.30195313 19.21685547 7 20 C6.31421875 20.41894531 5.6284375 20.83789062 4.921875 21.26953125 C2.5378231 22.1756648 1.39832846 21.6961382 -1 21 C-1.02888146 17.68751813 -1.04675799 14.37506833 -1.0625 11.0625 C-1.07087891 10.11697266 -1.07925781 9.17144531 -1.08789062 8.19726562 C-1.09111328 7.29814453 -1.09433594 6.39902344 -1.09765625 5.47265625 C-1.10289307 4.64000244 -1.10812988 3.80734863 -1.11352539 2.94946289 C-1 1 -1 1 0 0 Z " fill="#FFFFFF" transform="translate(4,1)"/>
</svg>
